# xmcd CD database file
#
# Track frame offsets:
#	150
#	15539
#	35059
#	53537
#	73862
#	95428
#	115010
#	129686
#	147160
#	173314
#	192233
#	213244
#	230974
#	250876
#	271964
#	293971
#	310353
#
# Disc length: 4432 seconds
#
# Revision: 0
# Processed by: cddbd v1.5.2PL0 Copyright (c) Steve Scherf et al.
# Submitted via: CDex 1.51
#
DISCID=f9114e11
DTITLE=Albert King - The masters
DYEAR=1900
DGENRE=Blues
TTITLE0=Born Under A Bad Sing
TTITLE1=The Very Tought Of You
TTITLE2=Cold Women With Warm Hearts
TTITLE3=Truck Load Of Loving
TTITLE4=Hold Hands With One Another
TTITLE5=Cadillac Assembly Line
TTITLE6=We All Wanna Boogie
TTITLE7=I Get Evil
TTITLE8=Angel Of Mercy
TTITLE9=You Upset Me Baby
TTITLE10=Let Me Rock You Easy
TTITLE11=Loove Mechanic
TTITLE12=Call My Job
TTITLE13=Goob Time Charly
TTITLE14=Nobody Wants A Loser
TTITLE15=Get Out Of My Life Woman
TTITLE16=The Feeling
EXTD=
EXTT0=
EXTT1=
EXTT2=
EXTT3=
EXTT4=
EXTT5=
EXTT6=
EXTT7=
EXTT8=
EXTT9=
EXTT10=
EXTT11=
EXTT12=
EXTT13=
EXTT14=
EXTT15=
EXTT16=
PLAYORDER=
